<svg xmlns="http://www.w3.org/2000/svg" viewBox="0 0 512 512" width="512" height="512">
  <defs>
    <linearGradient id="grad" x1="0%" y1="0%" x2="100%" y2="100%">
      <stop offset="0%" style="stop-color:#6366f1;stop-opacity:1" />
      <stop offset="100%" style="stop-color:#f59e0b;stop-opacity:1" />
    </linearGradient>
  </defs>
  <!-- Background fits safe zone -->
  <rect width="512" height="512" fill="#0d0e15" />
  <circle cx="256" cy="256" r="160" fill="url(#grad)" />
  
  <!-- Book symbol inside center -->
  <path d="M216 216c0-15 12-27 27-27h110v180H243c-15 0-27 12-27 27V216z" fill="#0d0e15" />
  <path d="M226 350h120v30H243c-10 0-18-8-18-18s8-18 18-18z" fill="#ffffff" opacity="0.9" />
  
  <!-- Tiny Gold Star in center -->
  <path d="M300 290l3 6 7 1-5 5 1 7-6-3-6 3 1-7-5-5 7-1z" fill="#f59e0b" />
</svg>
